<svg width="36" height="37" viewBox="0 0 36 37" fill="none" xmlns="http://www.w3.org/2000/svg">
<path d="M17.8133 0.790161C7.97833 0.798264 0.0449729 8.68402 0.0510289 18.5934C0.0570849 28.3407 8.00054 36.1981 17.8314 36.1981C27.8602 36.192 35.7976 28.3225 35.7935 18.5792C35.7875 8.66377 27.836 0.788134 17.8133 0.792186V0.790161ZM21.4186 20.4509C19.9147 25.1483 21.4287 29.2664 21.243 29.8275C20.8554 30.3906 19.3354 32.076 17.6457 31.5047C15.7522 31.132 15.3747 29.2644 15.3747 29.2644C15.3747 29.2644 16.5052 23.0781 14.2301 18.9661C11.9672 14.6576 9.69218 13.345 9.69218 13.345C9.69218 13.345 16.8847 16.902 17.4519 21.5832C18.0313 26.0781 15.7502 28.8856 16.1277 29.2644C16.3154 29.6493 17.8274 30.7573 19.3374 30.0037C20.6717 29.2644 20.4799 29.074 19.9147 28.1483C19.3374 27.0139 17.8274 22.5211 19.3354 19.5231C20.8433 16.3328 23.4938 14.6475 24.2528 14.2727C25.1996 13.7116 26.1463 13.1566 26.1463 13.1566C26.1463 13.1566 22.7469 15.958 21.4186 20.4489V20.4509ZM25.3913 12.5915C23.3121 14.2727 20.6616 16.902 16.5072 16.3409C12.3407 15.7717 6.47645 8.86228 6.47645 8.86228C6.47645 8.86228 9.12292 11.0945 11.0144 12.0324C12.914 12.9743 16.3114 14.4611 20.2882 13.5232C24.2548 12.7738 29.1703 8.47336 29.1703 8.47336C29.3661 8.28092 27.6179 10.894 25.3934 12.5915" fill="#2C65DA"/>
</svg>
